<?xml version="1.0" encoding="UTF-8"?>
<svg version="1.1" xmlns="http://www.w3.org/2000/svg" width="310" height="66">
<path d="M0 0 C2 0.6875 2 0.6875 4 2.6875 C4.5775 2.171875 5.155 1.65625 5.75 1.125 C8 -0.3125 8 -0.3125 10.25 0 C10.8275 0.226875 11.405 0.45375 12 0.6875 C12 2.0075 12 3.3275 12 4.6875 C12.33 3.3675 12.66 2.0475 13 0.6875 C13.886875 0.708125 14.77375 0.72875 15.6875 0.75 C18.92195844 0.80390134 18.92195844 0.80390134 21.6875 0.0625 C24 -0.3125 24 -0.3125 27 1.6875 C27.33 1.3575 27.66 1.0275 28 0.6875 C29.99954746 0.64495644 32.00041636 0.64669217 34 0.6875 C34.66 0.6875 35.32 0.6875 36 0.6875 C41.33333333 0.6875 46.66666667 0.6875 52 0.6875 C53.66965451 0.36947057 55.33678518 0.03765049 57 -0.3125 C57.05395478 1.31213842 57.09277195 2.93728541 57.125 4.5625 C57.14820313 5.46742187 57.17140625 6.37234375 57.1953125 7.3046875 C57 9.6875 57 9.6875 55 11.6875 C53.06054688 11.91455078 53.06054688 11.91455078 50.71875 11.8828125 C49.87699219 11.87636719 49.03523438 11.86992188 48.16796875 11.86328125 C47.28753906 11.84652344 46.40710938 11.82976563 45.5 11.8125 C44.61957031 11.80347656 43.73914063 11.79445313 42.83203125 11.78515625 C41.20111757 11.76767325 39.57023929 11.74610069 37.93945312 11.71923828 C36.62643527 11.69775133 35.31319366 11.6875 34 11.6875 C31.66666667 11.6875 29.33333333 11.6875 27 11.6875 C25.9490918 11.70321045 25.9490918 11.70321045 24.87695312 11.71923828 C22.08467839 11.76073371 19.29246145 11.78667803 16.5 11.8125 C15.52417969 11.82925781 14.54835938 11.84601562 13.54296875 11.86328125 C12.61097656 11.86972656 11.67898438 11.87617187 10.71875 11.8828125 C9.86216797 11.89328613 9.00558594 11.90375977 8.12304688 11.91455078 C6 11.6875 6 11.6875 4 9.6875 C3.67 10.3475 3.34 11.0075 3 11.6875 C0.68756208 11.71435412 -1.6249627 11.73382841 -3.9375 11.75 C-5.22527344 11.76160156 -6.51304687 11.77320313 -7.83984375 11.78515625 C-11 11.6875 -11 11.6875 -12 10.6875 C-12.0979057 9.19011876 -12.12974864 7.68807108 -12.125 6.1875 C-12.12757813 5.3728125 -12.13015625 4.558125 -12.1328125 3.71875 C-12 1.6875 -12 1.6875 -11 0.6875 C-8.66666667 0.6875 -6.33333333 0.6875 -4 0.6875 C-2 -0.3125 -2 -0.3125 0 0 Z M41 3.6875 C42 7.6875 42 7.6875 42 7.6875 Z M50 5.6875 C50.33 6.6775 50.66 7.6675 51 8.6875 C51.33 7.6975 51.66 6.7075 52 5.6875 C51.34 5.6875 50.68 5.6875 50 5.6875 Z " fill="#FFFFFF" transform="translate(248,24.3125)"/>
<path d="M0 0 C4.52030005 1.13007501 5.23556483 2.4573891 8.0625 5.90625 C19.84277065 18.63654247 37.24708431 25.86459193 54 29 C54 29.66 54 30.32 54 31 C36.18 31 18.36 31 0 31 C0 20.77 0 10.54 0 0 Z " fill="#DA241D" transform="translate(56,0)"/>
<path d="M0 0 C17.82 0 35.64 0 54 0 C53.67 0.66 53.34 1.32 53 2 C50.82999097 2.60796369 48.63696924 3.13419039 46.4375 3.625 C29.48957115 7.76655006 14.65925051 17.13781095 3 30 C2.67 30.66 2.34 31.32 2 32 C1.34 32 0.68 32 0 32 C0 21.44 0 10.88 0 0 Z " fill="#F4D900" transform="translate(57,33)"/>
<path d="M0 0 C0 10.23 0 20.46 0 31 C-17.82 31 -35.64 31 -54 31 C-54 30.34 -54 29.68 -54 29 C-53.030625 28.8040625 -52.06125 28.608125 -51.0625 28.40625 C-32.55289401 24.38596917 -17.05769921 15.7717028 -4.03125 1.94140625 C-2 0 -2 0 0 0 Z " fill="#1B7F2F" transform="translate(54,0)"/>
<path d="M0 0 C17.49 0 34.98 0 53 0 C53.33 10.56 53.66 21.12 54 32 C50.26116214 30.13058107 49.40912874 29.51861731 47.0625 26.4375 C35.25923301 12.57493962 17.33836638 5.62529479 0 2 C0 1.34 0 0.68 0 0 Z " fill="#0092DD" transform="translate(1,33)"/>
<path d="M0 0 C1.875 0.6875 1.875 0.6875 2.875 1.6875 C2.91580783 3.68708364 2.91754356 5.68795254 2.875 7.6875 C3.205 7.3575 3.535 7.0275 3.875 6.6875 C3.83375 5.883125 3.7925 5.07875 3.75 4.25 C3.79125 3.404375 3.8325 2.55875 3.875 1.6875 C7.40430024 -0.66536683 8.35828614 -0.42635386 12.4375 0.0625 C13.40816406 0.17335938 14.37882812 0.28421875 15.37890625 0.3984375 C16.61447266 0.54152344 16.61447266 0.54152344 17.875 0.6875 C19.95245737 0.77446968 19.95245737 0.77446968 22.1875 0.0625 C25.37296479 -0.38198346 27.02082781 0.30118779 29.875 1.6875 C30.535 1.0275 31.195 0.3675 31.875 -0.3125 C36.43055556 0.24305556 36.43055556 0.24305556 37.875 1.6875 C37.94705511 3.37358966 37.95886068 5.06250659 37.9375 6.75 C37.92847656 7.66910156 37.91945312 8.58820312 37.91015625 9.53515625 C37.89855469 10.24542969 37.88695312 10.95570312 37.875 11.6875 C23.875 11.6875 23.875 11.6875 18.875 10.6875 C18.215 9.6975 17.555 8.7075 16.875 7.6875 C16.545 9.0075 16.215 10.3275 15.875 11.6875 C14.555 11.6875 13.235 11.6875 11.875 11.6875 C11.875 9.3775 11.875 7.0675 11.875 4.6875 C10.885 5.1825 10.885 5.1825 9.875 5.6875 C9.50190101 7.34571773 9.16799023 9.01327014 8.875 10.6875 C7.875 11.6875 7.875 11.6875 4.93359375 11.78515625 C3.14115234 11.76775391 3.14115234 11.76775391 1.3125 11.75 C-0.48380859 11.73646484 -0.48380859 11.73646484 -2.31640625 11.72265625 C-3.24324219 11.71105469 -4.17007813 11.69945312 -5.125 11.6875 C-5.20590971 10.06331255 -5.26414995 8.43798255 -5.3125 6.8125 C-5.34730469 5.90757813 -5.38210937 5.00265625 -5.41796875 4.0703125 C-5.32128906 3.28398437 -5.22460938 2.49765625 -5.125 1.6875 C-2.125 -0.3125 -2.125 -0.3125 0 0 Z M21.875 4.6875 C21.875 5.6775 21.875 6.6675 21.875 7.6875 C22.865 7.3575 23.855 7.0275 24.875 6.6875 C24.875 6.0275 24.875 5.3675 24.875 4.6875 C23.885 4.6875 22.895 4.6875 21.875 4.6875 Z " fill="#FFFFFF" transform="translate(145.125,24.3125)"/>
<path d="M0 0 C2.33300933 0.03888349 4.66709801 0.0448635 7 0 C9 0 11 0 13 0 C13 3.63 13 7.26 13 11 C8.71 11 4.42 11 0 11 C-0.33 9.68 -0.66 8.36 -1 7 C-2.32 7 -3.64 7 -5 7 C-5 8.32 -5 9.64 -5 11 C-6.32 11 -7.64 11 -9 11 C-9.08090971 9.37581255 -9.13914995 7.75048255 -9.1875 6.125 C-9.22230469 5.22007813 -9.25710937 4.31515625 -9.29296875 3.3828125 C-9.19628906 2.59648437 -9.09960938 1.81015625 -9 1 C-5.22372823 -1.51751452 -4.32403987 -0.83154613 0 0 Z M8 5 C9 9 9 9 9 9 Z " fill="#FFFFFF" transform="translate(126,25)"/>
<path d="M0 0 C1.34386088 0.28797019 2.6757713 0.63215869 4 1 C5.7325 0.7525 5.7325 0.7525 7.5 0.5 C11 0 11 0 15 1 C15 4.63 15 8.26 15 12 C9 12 3 12 -3 12 C-3.08131463 10.56344146 -3.13933559 9.1255517 -3.1875 7.6875 C-3.22230469 6.88699219 -3.25710937 6.08648437 -3.29296875 5.26171875 C-3 3 -3 3 -1.59765625 1.18359375 C-1.07042969 0.79300781 -0.54320312 0.40242188 0 0 Z " fill="#FFFFFF" transform="translate(190,24)"/>
<path d="M0 0 C5.61 0 11.22 0 17 0 C17 1.32 17 2.64 17 4 C16.34 4 15.68 4 15 4 C15 6.31 15 8.62 15 11 C13.35 11 11.7 11 10 11 C9.67 10.01 9.34 9.02 9 8 C9 8.99 9 9.98 9 11 C6.03 11 3.06 11 0 11 C0 7.37 0 3.74 0 0 Z " fill="#FFFFFF" transform="translate(215,25)"/>
<path d="M0 0 C1.875 0.6875 1.875 0.6875 2.875 1.6875 C2.94705511 3.37358966 2.95886068 5.06250659 2.9375 6.75 C2.92847656 7.66910156 2.91945312 8.58820312 2.91015625 9.53515625 C2.89855469 10.24542969 2.88695312 10.95570312 2.875 11.6875 C0.235 11.6875 -2.405 11.6875 -5.125 11.6875 C-5.20590971 10.06331255 -5.26414995 8.43798255 -5.3125 6.8125 C-5.34730469 5.90757813 -5.38210937 5.00265625 -5.41796875 4.0703125 C-5.32128906 3.28398437 -5.22460938 2.49765625 -5.125 1.6875 C-2.125 -0.3125 -2.125 -0.3125 0 0 Z " fill="#FFFFFF" transform="translate(211.125,24.3125)"/>
</svg>
