<svg version="1.1" id="Layer_1" xmlns="http://www.w3.org/2000/svg" xmlns:xlink="http://www.w3.org/1999/xlink" x="0px" y="0px"
	 width="100%" viewBox="0 0 1024 1024" enable-background="new 0 0 1024 1024" xml:space="preserve">
<path fill="#000000" opacity="1.000000" stroke="none" 
	d="
M697.000000,1025.000000 
	C464.666656,1025.000000 232.833328,1025.000000 1.000000,1025.000000 
	C1.000000,683.666687 1.000000,342.333344 1.000000,1.000000 
	C342.333344,1.000000 683.666687,1.000000 1025.000000,1.000000 
	C1025.000000,342.333344 1025.000000,683.666687 1025.000000,1025.000000 
	C915.833313,1025.000000 806.666687,1025.000000 697.000000,1025.000000 
M644.924805,584.983704 
	C663.412231,584.988953 681.902222,585.189148 700.386230,584.940186 
	C716.336182,584.725403 728.637939,577.338745 738.069031,564.673035 
	C746.010132,554.008240 751.044189,541.951599 754.923767,529.416565 
	C758.022034,519.405884 760.410889,509.175629 763.822021,498.619812 
	C764.547729,493.499359 765.763000,488.391693 765.897339,483.255737 
	C766.178345,472.511719 765.889465,461.752777 765.979309,450.118927 
	C765.270996,443.292847 764.762207,436.437958 763.781738,429.651184 
	C763.164856,425.381256 761.841064,421.213440 760.980774,416.166870 
	C757.931702,404.443268 754.882629,392.719666 751.754944,380.264374 
	C746.743408,368.556488 741.376282,357.083313 730.779114,348.253632 
	C722.350891,341.484406 712.881836,337.163544 701.958801,337.045624 
	C684.443054,336.856537 666.923828,336.994934 649.537415,336.994934 
	C648.995178,359.948608 648.439941,383.453644 647.198425,407.326630 
	C644.690979,419.248444 639.274658,429.574066 631.596313,439.121613 
	C620.569763,452.832397 606.811829,462.122406 589.835083,465.771729 
	C580.483215,467.782013 570.626770,467.445343 560.071045,468.019470 
	C523.580261,468.012726 487.089417,467.957794 450.598816,468.028320 
	C439.510590,468.049744 429.174835,471.048248 419.803040,477.035919 
	C402.053741,488.376007 391.518280,504.777130 390.293427,525.543152 
	C389.030396,546.956055 390.111328,568.507202 390.014252,590.924438 
	C390.064972,606.281494 390.115662,621.638550 390.012329,637.920715 
	C390.341003,644.141968 390.307617,650.409302 391.090759,656.572815 
	C392.052765,664.144348 395.079071,671.028503 400.160370,677.685730 
	C406.091278,683.161926 412.022156,688.638184 418.255432,694.749023 
	C423.786896,697.632751 429.084351,701.168274 434.901459,703.256165 
	C445.099243,706.916382 455.615601,709.688965 466.723328,713.196838 
	C468.130493,713.477478 469.541229,713.741577 470.944336,714.041199 
	C487.783966,717.638000 504.717072,720.061829 521.991455,717.994080 
	C532.836548,716.695801 543.761292,715.825562 554.497925,713.909180 
	C576.007874,710.070068 596.725525,703.683594 614.163757,689.878662 
	C626.706970,679.948730 634.455322,666.866089 634.909790,650.507324 
	C635.330505,635.364319 635.000061,620.200439 635.000305,605.045715 
	C635.000366,603.447693 635.000366,601.849670 635.000366,600.166504 
	C629.268433,600.166504 624.133423,600.166504 618.071289,600.020508 
	C594.048218,600.068237 570.025085,600.116028 545.073853,600.019409 
	C535.683777,600.012451 526.292175,600.085999 516.905273,599.909546 
	C515.536438,599.883789 514.190002,598.664673 512.980164,597.076904 
	C512.980164,593.191467 512.980164,589.306091 512.980164,584.834412 
	C517.932556,584.834412 522.465210,584.834412 527.924683,584.985229 
	C544.949463,584.934998 561.974243,584.884766 579.925415,584.986328 
	C601.282898,584.935425 622.640320,584.884521 644.924805,584.983704 
M478.159821,207.073456 
	C473.974304,207.714371 469.757751,208.199493 465.609009,209.025131 
	C452.687042,211.596664 439.672028,213.833557 426.923157,217.098572 
	C417.224060,219.582565 408.733612,224.746536 401.859406,232.351562 
	C392.550629,242.649994 390.498169,255.370911 390.108978,268.382996 
	C389.631531,284.345734 390.004059,300.333862 390.009003,316.311035 
	C390.009552,318.081329 390.009064,319.851624 390.009064,321.829498 
	C394.739288,321.829498 398.865845,321.829498 403.920715,321.974243 
	C424.610535,321.926056 445.300323,321.877869 466.919128,321.972961 
	C481.810791,321.972961 496.702423,321.972961 511.899902,321.972961 
	C511.899902,327.050476 511.899902,331.500153 511.971161,335.972076 
	C511.971161,335.972076 511.946991,335.901489 511.020996,335.991241 
	C488.343872,336.049500 465.666718,336.107727 442.060822,336.042084 
	C426.037109,336.085815 410.013428,336.129517 393.061523,336.045380 
	C371.556976,336.639740 349.933929,334.155518 328.561188,338.037720 
	C305.814667,342.169464 288.441193,354.503967 277.264832,374.594116 
	C266.600769,393.763428 263.728149,415.277222 261.058197,436.674469 
	C260.304199,442.717224 260.032379,448.850067 259.990875,454.944702 
	C259.931915,463.609283 260.154205,472.282776 260.538605,480.939941 
	C260.688110,484.307159 261.605560,487.640259 262.028625,491.840057 
	C262.684570,496.027161 263.057953,500.282654 264.051636,504.388000 
	C266.609741,514.956909 269.442566,525.459290 272.048584,536.740173 
	C278.574097,555.257507 288.904144,570.689941 307.734070,580.004028 
	C315.353729,581.670410 322.914581,584.326660 330.606079,584.783264 
	C343.877380,585.571045 357.229828,584.991577 370.548248,584.985962 
	C372.288971,584.985168 374.029694,584.985840 376.004669,584.985840 
	C376.004669,565.162598 375.778839,546.186218 376.137115,527.220947 
	C376.250092,521.240540 377.438049,515.159302 378.985077,509.350861 
	C382.938873,494.505859 391.432037,482.489258 403.001678,472.472534 
	C415.974579,461.240906 430.807220,454.558868 448.042084,454.065796 
	C461.348633,453.685089 474.671906,453.889008 488.917603,453.972809 
	C516.061829,453.980072 543.206848,454.102478 570.349548,453.903687 
	C576.228638,453.860626 582.247253,453.272766 587.947083,451.888245 
	C608.184692,446.972260 622.136169,434.545044 630.339661,415.403595 
	C633.652588,407.673401 635.018066,399.705963 635.001953,391.387268 
	C634.931274,354.920868 634.886902,318.454407 634.949158,281.061432 
	C636.602661,257.251465 627.220093,238.727020 607.684814,224.306137 
	C607.106140,224.010254 606.493042,223.766464 605.953735,223.410873 
	C591.706116,214.017487 575.815613,210.052155 558.161621,209.003021 
	C548.367554,208.002869 538.582275,206.282394 528.777527,206.163681 
	C512.188721,205.962830 495.587677,206.774597 478.159821,207.073456 
M396.057678,771.503357 
	C391.533539,773.752930 386.744110,775.595825 382.541351,778.337952 
	C374.188629,783.787537 374.227509,792.383362 382.705170,797.743835 
	C387.351105,800.681519 392.478638,803.065918 397.673553,804.889221 
	C415.189911,811.037109 433.325500,814.451904 451.805817,815.952698 
	C469.538086,817.392761 487.272278,818.906982 505.034576,819.835388 
	C512.930176,820.248108 520.900635,819.375916 528.830200,818.954712 
	C540.035583,818.359558 551.264282,817.956726 562.428528,816.897278 
	C576.626465,815.549927 590.847900,814.107361 604.914246,811.815735 
	C618.297913,809.635315 631.364197,805.989929 643.363464,799.220825 
	C654.165100,793.127258 654.932617,784.068726 644.719055,777.499207 
	C640.617737,774.861267 636.028687,772.859375 631.458496,771.093384 
	C609.039490,762.430481 585.126892,761.475586 561.706665,758.219421 
	C549.480103,756.519531 536.988281,756.113708 524.622009,756.180054 
	C507.584412,756.271423 490.546936,757.252319 473.519836,758.069885 
	C464.472382,758.504333 455.300690,758.609863 446.443115,760.253906 
	C429.783356,763.346069 413.310608,767.445923 396.057678,771.503357 
z"/>
<path fill="#3873A3" opacity="1.000000" stroke="none" 
	d="
M608.047668,224.891174 
	C627.220093,238.727020 636.602661,257.251465 634.564087,281.593506 
	C628.242554,288.553314 622.112671,294.814667 616.409424,301.443054 
	C604.084900,315.766418 592.026123,330.317993 579.769836,344.700531 
	C569.123535,357.193787 558.311584,369.545837 547.651062,382.027039 
	C532.794373,399.421112 517.940613,416.818695 503.232880,434.338409 
	C497.932068,440.652679 493.057068,447.324402 487.987762,453.833008 
	C474.671906,453.889008 461.348633,453.685089 448.042084,454.065796 
	C430.807220,454.558868 415.974579,461.240906 403.001678,472.472534 
	C391.432037,482.489258 382.938873,494.505859 378.985077,509.350861 
	C377.438049,515.159302 376.250092,521.240540 376.137115,527.220947 
	C375.778839,546.186218 376.004669,565.162598 376.004669,584.985840 
	C374.029694,584.985840 372.288971,584.985168 370.548248,584.985962 
	C357.229828,584.991577 343.877380,585.571045 330.606079,584.783264 
	C322.914581,584.326660 315.353729,581.670410 307.431519,579.588989 
	C315.078094,569.623840 322.975464,560.030029 330.990540,550.535461 
	C339.551117,540.394714 348.242004,530.364136 356.840973,520.255676 
	C367.265564,508.000977 377.631256,495.696167 388.063446,483.448029 
	C398.604919,471.071503 409.210327,458.749481 419.762482,446.382080 
	C430.528168,433.764435 441.255615,421.114166 452.014069,408.490387 
	C460.622101,398.389801 469.268005,388.321472 477.867035,378.213257 
	C488.291992,365.958649 498.722595,353.708282 509.045532,341.368042 
	C510.340485,339.820068 510.995483,337.736755 511.947021,335.901489 
	C511.946991,335.901489 511.971161,335.972076 512.284180,335.920471 
	C513.792480,335.014587 515.210632,334.353760 516.146912,333.274750 
	C522.335144,326.143311 528.428589,318.929535 534.536316,311.728516 
	C547.070129,296.951263 559.599854,282.170471 572.119385,267.381104 
	C584.103333,253.224426 596.072144,239.054977 608.047668,224.891174 
z"/>
<path fill="#FFDF59" opacity="1.000000" stroke="none" 
	d="
M751.833496,380.996033 
	C754.882629,392.719666 757.931702,404.443268 760.574829,416.651031 
	C759.585022,417.445374 758.958313,417.695282 758.423218,418.074341 
	C732.253479,436.613220 706.047668,455.101471 679.938782,473.725677 
	C633.677063,506.725494 587.448730,539.772400 541.284851,572.908813 
	C536.258728,576.516541 531.747803,580.841919 526.997864,584.834412 
	C522.465210,584.834412 517.932556,584.834412 512.980164,584.834412 
	C512.980164,589.306091 512.980164,593.191467 512.567688,597.600830 
	C508.955811,600.171936 505.660919,602.085083 502.572235,604.287537 
	C479.753540,620.558533 457.010681,636.936157 434.170715,653.177185 
	C422.823578,661.245850 411.321747,669.097046 399.889923,677.046631 
	C395.079071,671.028503 392.052765,664.144348 391.090759,656.572815 
	C390.307617,650.409302 390.341003,644.141968 390.428986,637.396179 
	C393.962067,634.977966 397.212433,633.272217 400.173950,631.161255 
	C427.095642,611.970886 453.944336,592.678101 480.859314,573.478210 
	C508.588623,553.697388 536.392212,534.020630 564.119446,514.236938 
	C596.307983,491.270142 628.444580,468.230652 660.611877,445.234161 
	C681.290466,430.451050 701.940552,415.627441 722.689758,400.944031 
	C732.298096,394.144562 742.112549,387.636322 751.833496,380.996033 
z"/>
<path fill="#3E7BAC" opacity="1.000000" stroke="none" 
	d="
M511.484009,335.946350 
	C510.995483,337.736755 510.340485,339.820068 509.045532,341.368042 
	C498.722595,353.708282 488.291992,365.958649 477.867035,378.213257 
	C469.268005,388.321472 460.622101,398.389801 452.014069,408.490387 
	C441.255615,421.114166 430.528168,433.764435 419.762482,446.382080 
	C409.210327,458.749481 398.604919,471.071503 388.063446,483.448029 
	C377.631256,495.696167 367.265564,508.000977 356.840973,520.255676 
	C348.242004,530.364136 339.551117,540.394714 330.990540,550.535461 
	C322.975464,560.030029 315.078094,569.623840 307.059662,579.503662 
	C288.904144,570.689941 278.574097,555.257507 272.434814,536.301514 
	C275.114288,533.736755 277.620972,531.796326 279.662048,529.450745 
	C286.626892,521.446838 293.415497,513.289917 300.294525,505.211060 
	C308.787872,495.236420 317.321991,485.296448 325.806671,475.314453 
	C338.155670,460.786133 350.448303,446.209808 362.817719,431.698914 
	C373.360718,419.330627 384.008881,407.051971 394.554962,394.686310 
	C407.250549,379.800262 419.942017,364.909912 432.515747,349.921173 
	C436.215424,345.510895 439.509583,340.760498 442.989594,336.165985 
	C465.666718,336.107727 488.343872,336.049500 511.484009,335.946350 
z"/>
<path fill="#FFE56A" opacity="1.000000" stroke="none" 
	d="
M751.794250,380.630219 
	C742.112549,387.636322 732.298096,394.144562 722.689758,400.944031 
	C701.940552,415.627441 681.290466,430.451050 660.611877,445.234161 
	C628.444580,468.230652 596.307983,491.270142 564.119446,514.236938 
	C536.392212,534.020630 508.588623,553.697388 480.859314,573.478210 
	C453.944336,592.678101 427.095642,611.970886 400.173950,631.161255 
	C397.212433,633.272217 393.962067,634.977966 390.505981,636.933594 
	C390.115662,621.638550 390.064972,606.281494 390.446106,590.445312 
	C392.762939,588.969299 394.776642,588.156982 396.511963,586.945740 
	C407.677368,579.152527 418.818878,571.323914 429.899475,563.410645 
	C469.217407,535.331665 508.531433,507.247009 547.776855,479.066895 
	C552.406006,475.742950 556.601379,471.814819 560.997803,468.166748 
	C570.626770,467.445343 580.483215,467.782013 589.835083,465.771729 
	C606.811829,462.122406 620.569763,452.832397 631.596313,439.121613 
	C639.274658,429.574066 644.690979,419.248444 647.914795,407.139252 
	C650.533264,406.007263 652.594910,405.289490 654.311890,404.081757 
	C666.657776,395.397308 678.973267,386.668304 691.221252,377.846252 
	C704.538879,368.253693 717.773254,358.545441 731.043884,348.887604 
	C741.376282,357.083313 746.743408,368.556488 751.794250,380.630219 
z"/>
<path fill="#316A99" opacity="1.000000" stroke="none" 
	d="
M488.452698,453.902893 
	C493.057068,447.324402 497.932068,440.652679 503.232880,434.338409 
	C517.940613,416.818695 532.794373,399.421112 547.651062,382.027039 
	C558.311584,369.545837 569.123535,357.193787 579.769836,344.700531 
	C592.026123,330.317993 604.084900,315.766418 616.409424,301.443054 
	C622.112671,294.814667 628.242554,288.553314 634.505981,282.056763 
	C634.886902,318.454407 634.931274,354.920868 635.001953,391.387268 
	C635.018066,399.705963 633.652588,407.673401 630.339661,415.403595 
	C622.136169,434.545044 608.184692,446.972260 587.947083,451.888245 
	C582.247253,453.272766 576.228638,453.860626 570.349548,453.903687 
	C543.206848,454.102478 516.061829,453.980072 488.452698,453.902893 
z"/>
<path fill="#FFE872" opacity="1.000000" stroke="none" 
	d="
M560.534424,468.093140 
	C556.601379,471.814819 552.406006,475.742950 547.776855,479.066895 
	C508.531433,507.247009 469.217407,535.331665 429.899475,563.410645 
	C418.818878,571.323914 407.677368,579.152527 396.511963,586.945740 
	C394.776642,588.156982 392.762939,588.969299 390.522339,589.981995 
	C390.111328,568.507202 389.030396,546.956055 390.293427,525.543152 
	C391.518280,504.777130 402.053741,488.376007 419.803040,477.035919 
	C429.174835,471.048248 439.510590,468.049744 450.598816,468.028320 
	C487.089417,467.957794 523.580261,468.012726 560.534424,468.093140 
z"/>
<path fill="#8B8B8B" opacity="1.000000" stroke="none" 
	d="
M396.408905,771.315063 
	C413.310608,767.445923 429.783356,763.346069 446.443115,760.253906 
	C455.300690,758.609863 464.472382,758.504333 473.519836,758.069885 
	C490.546936,757.252319 507.584412,756.271423 524.622009,756.180054 
	C536.988281,756.113708 549.480103,756.519531 561.706665,758.219421 
	C585.126892,761.475586 609.039490,762.430481 631.458496,771.093384 
	C636.028687,772.859375 640.617737,774.861267 644.719055,777.499207 
	C654.932617,784.068726 654.165100,793.127258 643.363464,799.220825 
	C631.364197,805.989929 618.297913,809.635315 604.914246,811.815735 
	C590.847900,814.107361 576.626465,815.549927 562.428528,816.897278 
	C551.264282,817.956726 540.035583,818.359558 528.830200,818.954712 
	C520.900635,819.375916 512.930176,820.248108 505.034576,819.835388 
	C487.272278,818.906982 469.538086,817.392761 451.805817,815.952698 
	C433.325500,814.451904 415.189911,811.037109 397.673553,804.889221 
	C392.478638,803.065918 387.351105,800.681519 382.705170,797.743835 
	C374.227509,792.383362 374.188629,783.787537 382.541351,778.337952 
	C386.744110,775.595825 391.533539,773.752930 396.408905,771.315063 
M522.489075,769.997559 
	C501.358917,769.598145 480.272919,770.167969 459.617737,775.105774 
	C452.898865,776.711975 446.292358,779.235229 440.033630,782.185913 
	C434.449768,784.818176 434.379395,790.358093 439.470123,793.571594 
	C441.974274,795.152222 444.807526,796.280518 447.600128,797.323669 
	C463.670105,803.326538 480.605072,804.989197 497.466095,805.801636 
	C521.543579,806.961914 545.674072,806.197388 569.307312,800.753723 
	C576.154785,799.176453 582.888000,796.334900 589.096436,792.998779 
	C593.930908,790.400879 593.902527,786.936951 589.879761,783.524231 
	C587.538208,781.537842 584.687134,779.888672 581.790771,778.862427 
	C562.940430,772.183472 543.284851,770.561157 522.489075,769.997559 
z"/>
<path fill="#4989BB" opacity="1.000000" stroke="none" 
	d="
M262.173218,490.988922 
	C261.605560,487.640259 260.688110,484.307159 260.538605,480.939941 
	C260.154205,472.282776 259.931915,463.609283 259.990875,454.944702 
	C260.032379,448.850067 260.304199,442.717224 261.058197,436.674469 
	C263.728149,415.277222 266.600769,393.763428 277.264832,374.594116 
	C288.441193,354.503967 305.814667,342.169464 328.561188,338.037720 
	C349.933929,334.155518 371.556976,336.639740 393.511719,336.460724 
	C389.732086,342.325409 385.677643,347.922424 381.237488,353.194580 
	C370.672607,365.739227 359.906372,378.114044 349.257050,390.587860 
	C338.502167,403.185333 327.794006,415.822632 317.058258,428.436493 
	C308.361725,438.654297 299.647583,448.857117 290.954224,459.077606 
	C282.582642,468.919830 274.257416,478.801849 265.822723,488.589539 
	C264.908813,489.650085 263.403961,490.201416 262.173218,490.988922 
z"/>
<path fill="#4382B3" opacity="1.000000" stroke="none" 
	d="
M262.100922,491.414490 
	C263.403961,490.201416 264.908813,489.650085 265.822723,488.589539 
	C274.257416,478.801849 282.582642,468.919830 290.954224,459.077606 
	C299.647583,448.857117 308.361725,438.654297 317.058258,428.436493 
	C327.794006,415.822632 338.502167,403.185333 349.257050,390.587860 
	C359.906372,378.114044 370.672607,365.739227 381.237488,353.194580 
	C385.677643,347.922424 389.732086,342.325409 393.975800,336.524658 
	C410.013428,336.129517 426.037109,336.085815 442.525208,336.104034 
	C439.509583,340.760498 436.215424,345.510895 432.515747,349.921173 
	C419.942017,364.909912 407.250549,379.800262 394.554962,394.686310 
	C384.008881,407.051971 373.360718,419.330627 362.817719,431.698914 
	C350.448303,446.209808 338.155670,460.786133 325.806671,475.314453 
	C317.321991,485.296448 308.787872,495.236420 300.294525,505.211060 
	C293.415497,513.289917 286.626892,521.446838 279.662048,529.450745 
	C277.620972,531.796326 275.114288,533.736755 272.493347,535.925598 
	C269.442566,525.459290 266.609741,514.956909 264.051636,504.388000 
	C263.057953,500.282654 262.684570,496.027161 262.100922,491.414490 
z"/>
<path fill="#FFDC51" opacity="1.000000" stroke="none" 
	d="
M527.461304,584.909790 
	C531.747803,580.841919 536.258728,576.516541 541.284851,572.908813 
	C587.448730,539.772400 633.677063,506.725494 679.938782,473.725677 
	C706.047668,455.101471 732.253479,436.613220 758.423218,418.074341 
	C758.958313,417.695282 759.585022,417.445374 760.501648,417.067505 
	C761.841064,421.213440 763.164856,425.381256 763.781738,429.651184 
	C764.762207,436.437958 765.270996,443.292847 765.574341,450.627258 
	C749.267944,462.328583 733.321899,473.458832 717.473816,484.726746 
	C676.414673,513.919678 635.372986,543.137329 594.396484,572.445984 
	C589.047058,576.272156 584.121094,580.690491 578.999023,584.834595 
	C561.974243,584.884766 544.949463,584.934998 527.461304,584.909790 
z"/>
<path fill="#FFD43C" opacity="1.000000" stroke="none" 
	d="
M618.998413,600.166504 
	C624.133423,600.166504 629.268433,600.166504 635.000366,600.166504 
	C635.000366,601.849670 635.000366,603.447693 635.000305,605.045715 
	C635.000061,620.200439 635.330505,635.364319 634.909790,650.507324 
	C634.455322,666.866089 626.706970,679.948730 614.163757,689.878662 
	C596.725525,703.683594 576.007874,710.070068 554.497925,713.909180 
	C543.761292,715.825562 532.836548,716.695801 521.991455,717.994080 
	C504.717072,720.061829 487.783966,717.638000 470.944336,714.041199 
	C469.541229,713.741577 468.130493,713.477478 466.428406,712.685669 
	C467.259979,711.010620 468.240234,709.643311 469.534576,708.713013 
	C496.375702,689.422180 523.224365,670.141541 550.158386,650.980896 
	C553.463257,648.629822 557.263062,646.974548 560.774536,645.389160 
	C553.647217,662.878174 568.676086,678.712280 583.883789,677.133301 
	C593.997620,676.083252 605.775696,663.136047 603.903259,653.327637 
	C601.515320,640.818665 595.201660,632.421997 580.065308,631.504761 
	C581.545532,629.581970 582.729797,627.674377 584.410828,626.447327 
	C592.451599,620.578003 600.711365,615.007446 608.716431,609.091187 
	C612.354919,606.402100 615.583740,603.158569 618.998413,600.166504 
z"/>
<path fill="#FFD744" opacity="1.000000" stroke="none" 
	d="
M560.833496,644.996887 
	C557.263062,646.974548 553.463257,648.629822 550.158386,650.980896 
	C523.224365,670.141541 496.375702,689.422180 469.534576,708.713013 
	C468.240234,709.643311 467.259979,711.010620 466.065979,712.503906 
	C455.615601,709.688965 445.099243,706.916382 434.901459,703.256165 
	C429.084351,701.168274 423.786896,697.632751 418.319641,694.168884 
	C459.286224,664.375366 500.203735,635.183105 541.044922,605.884583 
	C543.039062,604.454041 544.364929,602.092041 546.001953,600.163757 
	C570.025085,600.116028 594.048218,600.068237 618.534851,600.093506 
	C615.583740,603.158569 612.354919,606.402100 608.716431,609.091187 
	C600.711365,615.007446 592.451599,620.578003 584.410828,626.447327 
	C582.729797,627.674377 581.545532,629.581970 579.664734,631.577576 
	C570.552856,632.759338 565.111816,638.057983 560.833496,644.996887 
z"/>
<path fill="#4382B3" opacity="1.000000" stroke="none" 
	d="
M465.990173,321.829712 
	C445.300323,321.877869 424.610535,321.926056 403.520569,321.565186 
	C407.937042,315.079742 412.756592,309.005737 417.569397,302.926422 
	C422.063263,297.249969 426.550049,291.567932 431.411133,285.942688 
	C441.648407,291.816132 448.597015,291.361145 457.195282,285.140015 
	C465.461273,279.159302 468.413605,268.404999 464.917877,259.059174 
	C462.266357,251.970291 456.452118,248.024277 450.058289,244.501511 
	C451.058929,242.635437 451.811951,240.950607 452.961151,239.603821 
	C459.579071,231.847946 466.393585,224.257721 472.915985,216.423645 
	C475.263367,213.604172 476.984711,210.263458 478.991760,207.160614 
	C495.587677,206.774597 512.188721,205.962830 528.777527,206.163681 
	C538.582275,206.282394 548.367554,208.002869 558.562012,209.438049 
	C554.842651,215.213150 550.912231,220.713013 546.565796,225.861710 
	C535.968018,238.415665 525.140381,250.775146 514.474243,263.271790 
	C501.764069,278.163361 489.072296,293.071442 476.489594,308.070526 
	C472.785736,312.485718 469.478943,317.234039 465.990173,321.829712 
z"/>
<path fill="#FFD744" opacity="1.000000" stroke="none" 
	d="
M579.462219,584.910461 
	C584.121094,580.690491 589.047058,576.272156 594.396484,572.445984 
	C635.372986,543.137329 676.414673,513.919678 717.473816,484.726746 
	C733.321899,473.458832 749.267944,462.328583 765.502014,451.067810 
	C765.889465,461.752777 766.178345,472.511719 765.897339,483.255737 
	C765.763000,488.391693 764.547729,493.499359 763.115540,498.875763 
	C760.139893,500.502441 757.769348,501.730927 755.616821,503.265198 
	C722.861694,526.611877 690.099060,549.948425 657.441772,573.431274 
	C652.686279,576.850769 648.465820,581.014282 643.997803,584.833557 
	C622.640320,584.884521 601.282898,584.935425 579.462219,584.910461 
z"/>
<path fill="#3E7BAC" opacity="1.000000" stroke="none" 
	d="
M466.454651,321.901306 
	C469.478943,317.234039 472.785736,312.485718 476.489594,308.070526 
	C489.072296,293.071442 501.764069,278.163361 514.474243,263.271790 
	C525.140381,250.775146 535.968018,238.415665 546.565796,225.861710 
	C550.912231,220.713013 554.842651,215.213150 558.975647,209.521454 
	C575.815613,210.052155 591.706116,214.017487 605.953735,223.410873 
	C606.493042,223.766464 607.106140,224.010254 607.866211,224.598663 
	C596.072144,239.054977 584.103333,253.224426 572.119385,267.381104 
	C559.599854,282.170471 547.070129,296.951263 534.536316,311.728516 
	C528.428589,318.929535 522.335144,326.143311 516.146912,333.274750 
	C515.210632,334.353760 513.792480,335.014587 512.248535,335.909363 
	C511.899902,331.500153 511.899902,327.050476 511.899902,321.972961 
	C496.702423,321.972961 481.810791,321.972961 466.454651,321.901306 
z"/>
<path fill="#4989BB" opacity="1.000000" stroke="none" 
	d="
M478.575806,207.117035 
	C476.984711,210.263458 475.263367,213.604172 472.915985,216.423645 
	C466.393585,224.257721 459.579071,231.847946 452.961151,239.603821 
	C451.811951,240.950607 451.058929,242.635437 449.646729,244.564026 
	C445.829010,244.976593 442.439331,244.630875 439.155243,245.071716 
	C430.591553,246.221298 422.569244,256.042786 421.889618,264.626434 
	C421.184052,273.537842 424.880554,280.142059 431.039978,285.888367 
	C426.550049,291.567932 422.063263,297.249969 417.569397,302.926422 
	C412.756592,309.005737 407.937042,315.079742 403.056396,321.492798 
	C398.865845,321.829498 394.739288,321.829498 390.009064,321.829498 
	C390.009064,319.851624 390.009552,318.081329 390.009003,316.311035 
	C390.004059,300.333862 389.631531,284.345734 390.108978,268.382996 
	C390.498169,255.370911 392.550629,242.649994 401.859406,232.351562 
	C408.733612,224.746536 417.224060,219.582565 426.923157,217.098572 
	C439.672028,213.833557 452.687042,211.596664 465.609009,209.025131 
	C469.757751,208.199493 473.974304,207.714371 478.575806,207.117035 
z"/>
<path fill="#FFD43C" opacity="1.000000" stroke="none" 
	d="
M644.461304,584.908569 
	C648.465820,581.014282 652.686279,576.850769 657.441772,573.431274 
	C690.099060,549.948425 722.861694,526.611877 755.616821,503.265198 
	C757.769348,501.730927 760.139893,500.502441 762.761841,499.087280 
	C760.410889,509.175629 758.022034,519.405884 754.923767,529.416565 
	C751.044189,541.951599 746.010132,554.008240 738.069031,564.673035 
	C728.637939,577.338745 716.336182,584.725403 700.386230,584.940186 
	C681.902222,585.189148 663.412231,584.988953 644.461304,584.908569 
z"/>
<path fill="#FFDC51" opacity="1.000000" stroke="none" 
	d="
M545.537903,600.091553 
	C544.364929,602.092041 543.039062,604.454041 541.044922,605.884583 
	C500.203735,635.183105 459.286224,664.375366 418.168457,693.851562 
	C412.022156,688.638184 406.091278,683.161926 400.025146,677.366211 
	C411.321747,669.097046 422.823578,661.245850 434.170715,653.177185 
	C457.010681,636.936157 479.753540,620.558533 502.572235,604.287537 
	C505.660919,602.085083 508.955811,600.171936 512.494202,598.061279 
	C514.190002,598.664673 515.536438,599.883789 516.905273,599.909546 
	C526.292175,600.085999 535.683777,600.012451 545.537903,600.091553 
z"/>
<path fill="#FFE872" opacity="1.000000" stroke="none" 
	d="
M730.911499,348.570618 
	C717.773254,358.545441 704.538879,368.253693 691.221252,377.846252 
	C678.973267,386.668304 666.657776,395.397308 654.311890,404.081757 
	C652.594910,405.289490 650.533264,406.007263 648.257935,406.955261 
	C648.439941,383.453644 648.995178,359.948608 649.537415,336.994934 
	C666.923828,336.994934 684.443054,336.856537 701.958801,337.045624 
	C712.881836,337.163544 722.350891,341.484406 730.911499,348.570618 
z"/>
<path fill="#A4A4A4" opacity="1.000000" stroke="none" 
	d="
M522.986450,769.997803 
	C543.284851,770.561157 562.940430,772.183472 581.790771,778.862427 
	C584.687134,779.888672 587.538208,781.537842 589.879761,783.524231 
	C593.902527,786.936951 593.930908,790.400879 589.096436,792.998779 
	C582.888000,796.334900 576.154785,799.176453 569.307312,800.753723 
	C545.674072,806.197388 521.543579,806.961914 497.466095,805.801636 
	C480.605072,804.989197 463.670105,803.326538 447.600128,797.323669 
	C444.807526,796.280518 441.974274,795.152222 439.470123,793.571594 
	C434.379395,790.358093 434.449768,784.818176 440.033630,782.185913 
	C446.292358,779.235229 452.898865,776.711975 459.617737,775.105774 
	C480.272919,770.167969 501.358917,769.598145 522.986450,769.997803 
z"/>
<path fill="#000000" opacity="1.000000" stroke="none" 
	d="
M560.774536,645.389160 
	C565.111816,638.057983 570.552856,632.759338 579.597595,631.906250 
	C595.201660,632.421997 601.515320,640.818665 603.903259,653.327637 
	C605.775696,663.136047 593.997620,676.083252 583.883789,677.133301 
	C568.676086,678.712280 553.647217,662.878174 560.774536,645.389160 
z"/>
<path fill="#000000" opacity="1.000000" stroke="none" 
	d="
M431.411133,285.942657 
	C424.880554,280.142059 421.184052,273.537842 421.889618,264.626434 
	C422.569244,256.042786 430.591553,246.221298 439.155243,245.071716 
	C442.439331,244.630875 445.829010,244.976593 449.582153,244.901398 
	C456.452118,248.024277 462.266357,251.970291 464.917877,259.059174 
	C468.413605,268.404999 465.461273,279.159302 457.195282,285.140015 
	C448.597015,291.361145 441.648407,291.816132 431.411133,285.942657 
z"/>
</svg>